<svg width="45" height="45" viewBox="0 0 45 45" fill="none" xmlns="http://www.w3.org/2000/svg">
<path d="M33.9032 2H10.1554C8.64974 2 7.27161 2.84552 6.58947 4.18782L2.0971 13.0278C1.42268 14.3549 1.54103 15.9468 2.40428 17.1596L19.0041 40.4809C20.5869 42.7046 23.8828 42.7249 25.4929 40.5209L42.4438 17.3169C43.3879 16.0246 43.4708 14.294 42.6546 12.9174L37.3439 3.96004C36.6235 2.74501 35.3157 2 33.9032 2Z" stroke="#E074E3" stroke-width="2"/>
<path d="M2 15H43" stroke="#E074E3" stroke-width="2"/>
<path d="M12.085 15.5479L20.3346 39.3395C20.964 41.1546 23.5414 41.1248 24.1285 39.2956L31.7516 15.5479M22.2974 2L33.5293 3.4485C34.7976 3.61206 35.5887 4.90755 35.1549 6.11054L31.7516 15.5479L22.2974 2ZM22.2974 2L10.4546 3.46375C9.19112 3.6199 8.39319 4.90107 8.81026 6.10386L12.085 15.5479L22.2974 2ZM22.2974 2L12.085 15.5479L22.2974 2ZM22.2974 2L31.7516 15.5479L22.2974 2Z" stroke="#E074E3" stroke-width="2"/>
</svg>
