<svg width="34" height="42" viewBox="0 0 34 42" fill="none" xmlns="http://www.w3.org/2000/svg">
<g clip-path="url(#clip0_1_48)">
<path d="M25 23V8.85714C25 7.03852 24.1571 5.29437 22.6569 4.00841C21.1566 2.72245 19.1217 2 17 2C14.8783 2 12.8434 2.72245 11.3431 4.00841C9.84285 5.29437 9 7.03852 9 8.85714V23" stroke="#5EBA67" stroke-width="2.5" stroke-linecap="round" stroke-linejoin="round"/>
<path d="M27.5 18H6.5C4.01472 18 2 19.7382 2 21.8824V36.1176C2 38.2618 4.01472 40 6.5 40H27.5C29.9853 40 32 38.2618 32 36.1176V21.8824C32 19.7382 29.9853 18 27.5 18Z" stroke="#5EBA67" stroke-width="2.5" stroke-linecap="round" stroke-linejoin="round"/>
</g>
<defs>
<clipPath id="clip0_1_48">
<rect width="34" height="42" fill="white"/>
</clipPath>
</defs>
</svg>
