<svg width="37" height="36" viewBox="0 0 37 36" fill="none" xmlns="http://www.w3.org/2000/svg">
<path d="M16.122 2.93547C16.871 0.632188 20.129 0.632188 20.878 2.93547L23.076 9.70141C23.545 11.1435 24.888 12.1199 26.405 12.1199H33.519C35.941 12.1199 36.948 15.2189 34.988 16.6424L29.233 20.824C28.006 21.7153 27.493 23.295 27.961 24.7371L30.16 31.5031C30.908 33.8064 28.272 35.7217 26.313 34.2982L20.557 30.1166C19.331 29.2253 17.669 29.2253 16.443 30.1166L10.687 34.2982C8.728 35.7217 6.092 33.8064 6.84 31.5031L9.039 24.7371C9.507 23.295 8.994 21.7153 7.767 20.824L2.012 16.6424C0.0519967 15.2189 1.05901 12.1199 3.48101 12.1199H10.595C12.112 12.1199 13.455 11.1435 13.924 9.70141L16.122 2.93547Z" stroke="#FFC226"/>
</svg>
