<svg id="visual" viewBox="0 0 2048 1480" width="2048" height="1480" xmlns="http://www.w3.org/2000/svg" xmlns:xlink="http://www.w3.org/1999/xlink" version="1.1"><rect x="0" y="0" width="2048" height="1480" fill="#fff"></rect><defs><linearGradient id="grad1_0" x1="27.7%" y1="0%" x2="100%" y2="100%"><stop offset="22.324324324324323%" stop-color="#0083f3" stop-opacity="1"></stop><stop offset="77.67567567567568%" stop-color="#0083f3" stop-opacity="1"></stop></linearGradient></defs><defs><linearGradient id="grad1_1" x1="27.7%" y1="0%" x2="100%" y2="100%"><stop offset="22.324324324324323%" stop-color="#0083f3" stop-opacity="1"></stop><stop offset="77.67567567567568%" stop-color="#669af6" stop-opacity="1"></stop></linearGradient></defs><defs><linearGradient id="grad1_2" x1="27.7%" y1="0%" x2="100%" y2="100%"><stop offset="22.324324324324323%" stop-color="#94b2f9" stop-opacity="1"></stop><stop offset="77.67567567567568%" stop-color="#669af6" stop-opacity="1"></stop></linearGradient></defs><defs><linearGradient id="grad1_3" x1="27.7%" y1="0%" x2="100%" y2="100%"><stop offset="22.324324324324323%" stop-color="#94b2f9" stop-opacity="1"></stop><stop offset="77.67567567567568%" stop-color="#bacbfb" stop-opacity="1"></stop></linearGradient></defs><defs><linearGradient id="grad1_4" x1="27.7%" y1="0%" x2="100%" y2="100%"><stop offset="22.324324324324323%" stop-color="#dee5fd" stop-opacity="1"></stop><stop offset="77.67567567567568%" stop-color="#bacbfb" stop-opacity="1"></stop></linearGradient></defs><defs><linearGradient id="grad1_5" x1="27.7%" y1="0%" x2="100%" y2="100%"><stop offset="22.324324324324323%" stop-color="#dee5fd" stop-opacity="1"></stop><stop offset="77.67567567567568%" stop-color="#ffffff" stop-opacity="1"></stop></linearGradient></defs><defs><linearGradient id="grad2_0" x1="0%" y1="0%" x2="72.3%" y2="100%"><stop offset="22.324324324324323%" stop-color="#0083f3" stop-opacity="1"></stop><stop offset="77.67567567567568%" stop-color="#0083f3" stop-opacity="1"></stop></linearGradient></defs><defs><linearGradient id="grad2_1" x1="0%" y1="0%" x2="72.3%" y2="100%"><stop offset="22.324324324324323%" stop-color="#669af6" stop-opacity="1"></stop><stop offset="77.67567567567568%" stop-color="#0083f3" stop-opacity="1"></stop></linearGradient></defs><defs><linearGradient id="grad2_2" x1="0%" y1="0%" x2="72.3%" y2="100%"><stop offset="22.324324324324323%" stop-color="#669af6" stop-opacity="1"></stop><stop offset="77.67567567567568%" stop-color="#94b2f9" stop-opacity="1"></stop></linearGradient></defs><defs><linearGradient id="grad2_3" x1="0%" y1="0%" x2="72.3%" y2="100%"><stop offset="22.324324324324323%" stop-color="#bacbfb" stop-opacity="1"></stop><stop offset="77.67567567567568%" stop-color="#94b2f9" stop-opacity="1"></stop></linearGradient></defs><defs><linearGradient id="grad2_4" x1="0%" y1="0%" x2="72.3%" y2="100%"><stop offset="22.324324324324323%" stop-color="#bacbfb" stop-opacity="1"></stop><stop offset="77.67567567567568%" stop-color="#dee5fd" stop-opacity="1"></stop></linearGradient></defs><defs><linearGradient id="grad2_5" x1="0%" y1="0%" x2="72.3%" y2="100%"><stop offset="22.324324324324323%" stop-color="#ffffff" stop-opacity="1"></stop><stop offset="77.67567567567568%" stop-color="#dee5fd" stop-opacity="1"></stop></linearGradient></defs><g transform="translate(2048, 0)"><path d="M0 1219C-226.8 1209.2 -453.6 1199.4 -631.7 1094.1C-809.8 988.9 -939.1 788.3 -1021.9 590C-1104.7 391.7 -1140.8 195.9 -1177 0L0 0Z" fill="#eef2fe"></path><path d="M0 1015.8C-189 1007.7 -378 999.5 -526.4 911.8C-674.8 824.1 -782.6 656.9 -851.6 491.7C-920.6 326.5 -950.7 163.2 -980.8 0L0 0Z" fill="#ccd8fd"></path><path d="M0 812.7C-151.2 806.1 -302.4 799.6 -421.1 729.4C-539.9 659.3 -626.1 525.5 -681.3 393.3C-736.4 261.2 -760.6 130.6 -784.7 0L0 0Z" fill="#a8befa"></path><path d="M0 609.5C-113.4 604.6 -226.8 599.7 -315.8 547.1C-404.9 494.5 -469.6 394.1 -511 295C-552.3 195.9 -570.4 97.9 -588.5 0L0 0Z" fill="#7fa6f8"></path><path d="M0 406.3C-75.6 403.1 -151.2 399.8 -210.6 364.7C-269.9 329.6 -313 262.8 -340.6 196.7C-368.2 130.6 -380.3 65.3 -392.3 0L0 0Z" fill="#478ef5"></path><path d="M0 203.2C-37.8 201.5 -75.6 199.9 -105.3 182.4C-135 164.8 -156.5 131.4 -170.3 98.3C-184.1 65.3 -190.1 32.6 -196.2 0L0 0Z" fill="#0083f3"></path></g><g transform="translate(0, 1480)"><path d="M0 -1263.4C206.8 -1197.3 413.6 -1131.1 589.5 -1021C765.4 -911 910.5 -757 1003.7 -579.5C1097 -402 1138.5 -201 1180 0L0 0Z" fill="#eef2fe"></path><path d="M0 -1052.8C172.3 -997.7 344.7 -942.6 491.2 -850.9C637.8 -759.1 758.7 -630.8 836.4 -482.9C914.2 -335 948.7 -167.5 983.3 0L0 0Z" fill="#ccd8fd"></path><path d="M0 -842.3C137.9 -798.2 275.7 -754.1 393 -680.7C510.3 -607.3 607 -504.7 669.1 -386.3C731.3 -268 759 -134 786.7 0L0 0Z" fill="#a8befa"></path><path d="M0 -631.7C103.4 -598.6 206.8 -565.6 294.7 -510.5C382.7 -455.5 455.2 -378.5 501.9 -289.8C548.5 -201 569.2 -100.5 590 0L0 0Z" fill="#7fa6f8"></path><path d="M0 -421.1C68.9 -399.1 137.9 -377 196.5 -340.3C255.1 -303.7 303.5 -252.3 334.6 -193.2C365.7 -134 379.5 -67 393.3 0L0 0Z" fill="#478ef5"></path><path d="M0 -210.6C34.5 -199.5 68.9 -188.5 98.2 -170.2C127.6 -151.8 151.7 -126.2 167.3 -96.6C182.8 -67 189.7 -33.5 196.7 0L0 0Z" fill="#0083f3"></path></g></svg>